<?xml version="1.0" encoding="utf-8"?>
<!-- Generator: Adobe Illustrator 19.0.0, SVG Export Plug-In . SVG Version: 6.00 Build 0)  -->
<svg version="1.1" id="Layer_1" xmlns="http://www.w3.org/2000/svg" xmlns:xlink="http://www.w3.org/1999/xlink" x="0px" y="0px"
	 viewBox="-1063 1065 32 32" style="enable-background:new -1063 1065 32 32;" xml:space="preserve">
<style type="text/css">
	.st0{fill:#5596E6;}
	.st1{fill:#FFFFFF;}
</style>
<path class="st0" d="M-1063,1081.2c0-8.6,7.1-15.6,15.9-15.6c8.8,0,15.9,7,15.9,15.6c0,8.6-7.1,15.6-15.9,15.6
	C-1055.9,1096.8-1063,1089.8-1063,1081.2"/>
<path class="st1" d="M-1047.1,1090.5c0,0-0.1,0-0.1,0c-0.1-0.1-0.2-0.2-0.1-0.3l2.7-4.7h2.2c2.3,0,4.3-1.9,4.3-4.2v-4.7
	c0-2.3-1.9-4.2-4.3-4.2h-9.4c-2.4,0-4.3,1.9-4.3,4.2v4.7c0,2.3,1.9,4.2,4.3,4.2h4.1c0.1,0,0.3,0.1,0.3,0.2c0,0.1-0.1,0.2-0.3,0.2
	h-4.1c-2.6,0-4.8-2.1-4.8-4.7v-4.7c0-2.6,2.2-4.7,4.8-4.7h9.4c2.6,0,4.8,2.1,4.8,4.7v4.7c0,2.6-2.1,4.7-4.8,4.7h-1.9l-2.6,4.4
	C-1046.9,1090.4-1047,1090.5-1047.1,1090.5"/>
<path class="st1" d="M-1050.2,1078.9c0-0.5-0.4-0.9-0.9-0.9c-0.5,0-0.9,0.4-0.9,0.9s0.4,0.9,0.9,0.9
	C-1050.6,1079.8-1050.2,1079.4-1050.2,1078.9 M-1046.2,1078.9c0-0.5-0.4-0.9-0.9-0.9s-0.9,0.4-0.9,0.9s0.4,0.9,0.9,0.9
	S-1046.2,1079.4-1046.2,1078.9 M-1042.2,1078.9c0-0.5-0.4-0.9-0.9-0.9c-0.5,0-0.9,0.4-0.9,0.9c0,0.5,0.4,0.9,0.9,0.9
	C-1042.6,1079.8-1042.2,1079.4-1042.2,1078.9"/>
</svg>
